<?xml version="1.0" standalone="no"?>
<!DOCTYPE svg PUBLIC "-//W3C//DTD SVG 20010904//EN"
 "http://www.w3.org/TR/2001/REC-SVG-20010904/DTD/svg10.dtd">
<svg version="1.0" xmlns="http://www.w3.org/2000/svg"
 width="472.000000pt" height="136.000000pt" viewBox="0 0 472.000000 136.000000"
 preserveAspectRatio="xMidYMid meet">

<g transform="translate(0.000000,136.000000) scale(0.100000,-0.100000)"
fill="#000000" stroke="none">
<path d="M450 1013 c-52 -92 -107 -188 -123 -215 l-27 -48 82 0 83 0 80 140
c43 77 81 140 85 140 6 0 130 -214 130 -224 0 -3 -11 -6 -25 -6 -19 0 -31 13
-60 65 -39 69 -49 76 -64 48 -6 -14 2 -36 33 -90 l41 -73 84 0 83 0 -14 23
c-8 12 -56 95 -108 185 -51 89 -96 162 -100 162 -4 0 -49 -72 -99 -160 -81
-140 -96 -160 -118 -160 -32 0 -35 -6 83 198 53 92 99 170 101 175 2 4 -8 7
-24 7 -26 -1 -36 -14 -123 -167z"/>
<path d="M900 1110 l0 -70 182 2 c165 3 183 5 186 21 3 16 -10 17 -157 17
l-161 0 0 25 0 25 165 0 c152 0 167 -2 185 -20 26 -26 26 -70 0 -98 -20 -21
-28 -22 -210 -22 l-190 0 0 -120 0 -120 70 0 70 0 0 70 c0 63 -2 70 -20 70
-17 0 -20 -7 -20 -45 0 -41 -2 -45 -25 -45 -24 0 -25 2 -25 70 l0 70 155 0
c177 0 212 9 245 62 29 46 21 101 -19 142 l-31 31 -200 3 -200 3 0 -71z"/>
<path d="M1400 965 l0 -215 70 0 70 0 0 69 c0 60 -4 74 -25 98 l-24 28 -1 -72
c0 -71 -1 -73 -25 -73 l-25 0 0 165 0 165 43 0 c42 -1 43 -2 162 -141 l120
-141 3 141 3 141 24 0 25 0 0 -165 0 -165 -39 0 c-38 0 -43 4 -149 128 -138
161 -142 164 -142 124 0 -24 24 -57 117 -166 l117 -136 68 0 68 0 0 215 0 215
-70 0 -69 0 -3 -102 -3 -101 -88 101 -88 102 -70 0 -69 0 0 -215z"/>
<path d="M2067 1088 c-102 -174 -187 -325 -187 -332 0 -3 36 -6 79 -6 l79 0
79 140 c43 77 81 140 84 140 4 0 30 -42 59 -92 29 -51 59 -103 68 -115 14 -22
13 -23 -15 -23 -26 0 -34 9 -71 72 -40 71 -41 71 -53 45 -10 -23 -7 -33 28
-94 l39 -68 83 -3 83 -3 -33 59 c-19 32 -68 118 -109 190 -41 72 -77 129 -80
126 -3 -3 -46 -76 -96 -162 -78 -136 -94 -157 -117 -160 -15 -2 -27 -1 -27 2
0 2 47 87 105 187 58 100 105 184 105 186 0 2 -11 3 -24 3 -21 0 -34 -16 -79
-92z"/>
<path d="M2440 1110 l0 -70 183 2 c154 3 182 5 182 18 0 13 -27 16 -160 20
-157 5 -160 5 -163 28 l-3 22 169 0 c157 0 170 -1 187 -20 23 -26 23 -74 0
-100 -16 -17 -31 -20 -112 -20 -93 0 -93 0 -93 -25 0 -25 0 -25 93 -25 81 0
96 -3 112 -20 23 -26 23 -74 0 -100 -17 -19 -30 -20 -187 -20 l-168 0 0 70 c0
68 1 70 25 70 23 0 25 -4 25 -45 l0 -46 138 3 c114 3 137 6 137 18 0 12 -20
16 -112 18 l-113 3 0 49 0 50 -70 0 -70 0 0 -120 0 -120 180 0 c197 0 233 7
263 53 22 34 22 94 -1 132 -18 29 -18 31 0 60 22 37 23 103 2 133 -32 46 -60
52 -259 52 l-185 0 0 -70z"/>
<path d="M3085 973 c-65 -115 -120 -212 -122 -216 -3 -4 32 -7 77 -5 l82 3 77
132 c43 73 80 135 83 139 5 5 138 -209 138 -222 0 -3 -12 -4 -27 -2 -22 2 -35
16 -64 66 -46 79 -43 76 -58 49 -11 -20 -7 -31 30 -95 l42 -72 78 0 c44 0 79
3 79 6 0 4 -48 89 -107 191 -72 125 -109 180 -115 171 -4 -7 -47 -82 -95 -165
-80 -141 -89 -153 -115 -153 l-29 0 25 43 c201 347 196 337 167 337 -25 0 -37
-17 -146 -207z"/>
<path d="M3512 968 l3 -213 73 -3 72 -3 0 67 c0 56 -4 71 -25 96 l-25 30 0
-71 c0 -69 -1 -71 -25 -71 l-25 0 0 165 0 165 39 0 c39 0 43 -4 163 -142 l123
-143 3 143 c2 134 4 142 22 142 19 0 20 -7 20 -165 l0 -165 -37 1 c-36 0 -44
7 -158 141 -117 137 -120 140 -123 109 -3 -28 10 -47 113 -166 l117 -135 69 0
69 0 0 215 0 215 -70 0 -70 0 0 -100 c0 -55 -3 -100 -7 -99 -5 0 -46 45 -92
100 l-83 99 -74 0 -74 0 2 -212z"/>
<path d="M4032 968 l3 -213 90 -3 89 -3 -24 26 c-18 19 -33 25 -67 25 l-43 0
0 165 0 165 25 0 c25 0 25 -1 25 -87 l0 -88 88 88 c76 76 92 87 122 87 l35 0
-120 -115 -120 -115 79 -75 79 -75 101 0 101 1 -95 89 c-83 78 -97 88 -110 75
-12 -13 -8 -21 35 -65 l49 -50 -33 0 c-25 0 -46 12 -88 47 l-56 48 149 142
149 143 -105 0 -104 0 -53 -52 -53 -52 0 52 0 52 -75 0 -75 0 2 -212z"/>
</g>
</svg>
